# xmcd
#
# Track frame offsets:
#	150
#	21978
#	52514
#	73442
#	97546
#	105636
#	125630
#	153197
#	181232
#	197348
#	215170
#	225994
#	249248
#	299087
#
# Disc length: 4601 seconds
# Revision: 2
# Processed by: cddbd v1.5.2PL0 Copyright (c) Steve Scherf et al.
# Submitted via: dBpowerAMP V12.0
#
DISCID=ba11f70e
DTITLE=The John Butler Trio - Sunrise Over Sea
DYEAR=2004
DGENRE=Bluegrass
TTITLE0=Treat Yo Mama
TTITLE1=Peaches and Cream
TTITLE2=Company Sin
TTITLE3=What You Want
TTITLE4=Damned To Hell
TTITLE5=Hello
TTITLE6=Bound To Ramble
TTITLE7=Seeing Angels
TTITLE8=There'll Come a Time
TTITLE9=Zebra
TTITLE10=Mist
TTITLE11=Oldman
TTITLE12=Sometimes
TTITLE13=Somethings Gotta Give
EXTD=
EXTT0=
EXTT1=
EXTT2=
EXTT3=
EXTT4=
EXTT5=
EXTT6=
EXTT7=
EXTT8=
EXTT9=
EXTT10=
EXTT11=
EXTT12=
EXTT13=
PLAYORDER=
